<?xml version="1.0" standalone="no"?>
<!DOCTYPE svg PUBLIC "-//W3C//DTD SVG 20010904//EN"
 "http://www.w3.org/TR/2001/REC-SVG-20010904/DTD/svg10.dtd">
<svg version="1.0" xmlns="http://www.w3.org/2000/svg"
 width="300.000000pt" height="224.000000pt" viewBox="0 0 300.000000 224.000000"
 preserveAspectRatio="xMidYMid meet">
<metadata>
Created by potrace 1.10, written by Peter Selinger 2001-2011
</metadata>
<g transform="translate(0.000000,224.000000) scale(0.100000,-0.100000)"
fill="#000000" stroke="none">
<path d="M30 1130 l0 -1080 1470 0 1470 0 0 1080 0 1080 -1470 0 -1470 0 0
-1080z m2205 1030 l410 0 0 -69 c0 -67 -1 -68 -20 -55 -17 12 -120 14 -600 15
-1197 1 -1629 -3 -1647 -12 -10 -5 -20 -21 -23 -34 -3 -14 -8 -37 -11 -52 l-5
-26 -22 21 -21 22 23 41 c19 33 22 51 19 95 l-5 54 341 2 c188 2 523 2 746 1
223 -2 590 -3 815 -3z m638 -9 c4 -1 7 -29 5 -63 l-3 -63 -95 0 -95 0 -3 53
c-2 30 1 59 7 65 7 10 109 14 184 8z m-2578 -66 l0 -60 -95 0 -95 0 -3 49 c-5
77 -5 77 100 74 l93 -3 0 -60z m1185 -83 c0 -41 -9 -50 -43 -43 -69 15 -269
-40 -365 -98 -27 -17 -56 -31 -65 -31 -9 0 -36 26 -60 58 -25 31 -60 71 -78
87 l-33 30 19 -30 c10 -16 45 -66 79 -110 33 -44 61 -82 63 -84 1 -2 20 8 40
22 56 38 179 94 248 112 33 9 97 19 143 22 l83 6 -3 34 -3 33 553 0 553 1 2
-436 2 -435 -158 0 c-109 0 -158 -3 -155 -11 2 -7 58 -11 156 -12 l152 -2 3
-438 2 -437 -558 0 -557 0 6 41 c6 37 5 41 -12 37 -15 -3 -18 -11 -16 -41 l4
-37 -551 0 -551 0 0 440 0 441 147 -2 c100 -1 149 3 151 10 3 8 -42 11 -147
11 l-151 0 0 433 c0 239 2 436 4 438 3 2 250 6 550 8 546 4 546 4 546 -17z
m1440 -24 l0 -42 -22 21 c-21 22 -21 23 -3 43 10 11 20 20 22 20 1 0 3 -19 3
-42z m-240 1 c0 -10 -7 -19 -15 -19 -9 0 -15 9 -15 25 0 18 4 23 15 19 8 -4
15 -15 15 -25z m-2382 -97 c4 -74 -5 -82 -93 -82 -103 0 -105 1 -105 69 0 32
3 61 7 65 4 4 48 5 98 4 l90 -3 3 -53z m2580 -10 l3 -63 -98 3 -98 3 -3 49
c-5 77 -5 77 100 74 l93 -3 3 -63z m-2528 -106 c0 -42 -9 -50 -32 -29 -22 20
-23 31 -2 54 22 24 34 15 34 -25z m2570 -3 l0 -37 -22 21 c-18 18 -19 24 -8
37 20 25 30 19 30 -21z m-241 13 c8 -10 8 -16 -2 -25 -16 -13 -27 -5 -27 21 0
21 13 23 29 4z m-2384 -116 l0 -65 -95 0 -95 0 -3 54 c-5 83 -6 82 100 79 l93
-3 0 -65z m2580 0 l0 -65 -83 -3 c-53 -2 -89 1 -98 9 -15 12 -20 110 -7 123 4
4 48 5 98 4 l90 -3 0 -65z m-2535 -107 l0 -46 -25 23 -25 24 22 23 c12 13 23
23 25 23 2 0 3 -21 3 -47z m2580 1 c0 -38 -15 -42 -34 -10 -9 13 -7 20 8 32
26 19 26 19 26 -22z m-241 13 c8 -10 7 -17 -1 -25 -19 -19 -28 -14 -28 13 0
27 12 32 29 12z m189 -56 c9 -5 12 -26 10 -67 l-3 -59 -95 0 -95 0 -3 53 c-4
74 5 82 97 82 42 0 82 -4 89 -9z m-2573 -66 l0 -60 -95 0 -95 0 -3 49 c-5 77
-5 77 100 74 l93 -3 0 -60z m45 -105 c0 -49 0 -49 -20 -33 -11 10 -20 24 -20
32 0 13 27 51 37 51 1 0 3 -22 3 -50z m2580 -2 l0 -42 -22 21 c-21 22 -21 23
-3 43 10 11 20 20 22 20 1 0 3 -19 3 -42z m-235 2 c0 -8 -8 -16 -17 -18 -13
-2 -18 3 -18 18 0 15 5 20 18 18 9 -2 17 -10 17 -18z m-2390 -105 l0 -60 -97
-3 -98 -3 0 59 c0 32 3 62 7 66 4 4 48 5 98 4 l90 -3 0 -60z m2585 0 l0 -66
-97 3 -98 3 -3 49 c-5 76 -5 76 103 76 l95 0 0 -65z m-2530 -109 c0 -42 -9
-50 -32 -29 -22 20 -23 31 -2 54 22 24 34 15 34 -25z m2570 -3 l0 -37 -22 21
c-18 18 -19 24 -8 37 20 25 30 19 30 -21z m-237 13 c5 -13 -10 -36 -24 -36
-10 0 -20 30 -13 41 8 14 31 11 37 -5z m-2388 -116 l0 -65 -95 0 -95 0 -3 54
c-5 83 -6 82 100 79 l93 -3 0 -65z m2580 0 l0 -65 -83 -3 c-53 -2 -89 1 -98 9
-15 12 -20 110 -7 123 4 4 48 5 98 4 l90 -3 0 -65z m-2535 -107 c0 -45 0 -46
-20 -28 -11 10 -20 23 -20 28 0 10 29 47 37 47 1 0 3 -21 3 -47z m2580 1 c0
-37 -14 -42 -34 -12 -7 12 -6 21 3 32 21 25 31 19 31 -20z m-241 13 c8 -10 7
-17 -1 -25 -19 -19 -28 -14 -28 13 0 27 12 32 29 12z m-2390 -61 c7 -8 11 -37
9 -68 l-3 -53 -95 0 -95 0 -3 59 c-2 41 1 62 10 67 23 15 164 11 177 -5z
m2586 -56 l0 -65 -95 0 -95 0 -3 53 c-4 77 4 83 107 80 l86 -3 0 -65z m-2535
-111 l0 -52 -20 26 c-11 14 -20 29 -20 33 0 8 30 44 37 44 1 0 3 -23 3 -51z
m2580 -1 l0 -42 -22 21 c-21 22 -21 23 -3 43 10 11 20 20 22 20 1 0 3 -19 3
-42z m-241 -4 c-16 -19 -29 -17 -29 4 0 26 11 34 27 21 10 -9 10 -15 2 -25z
m-2384 -99 l0 -60 -95 0 -95 0 -3 49 c-5 77 -5 77 100 74 l93 -3 0 -60z m2583
3 l-3 -63 -95 0 -95 0 -3 49 c-5 76 -5 76 103 76 l96 0 -3 -62z m-2528 -112
c0 -42 -9 -50 -32 -29 -22 20 -23 31 -2 54 22 24 34 15 34 -25z m2570 2 l0
-42 -22 21 c-21 22 -21 23 -3 43 10 11 20 20 22 20 1 0 3 -19 3 -42z m-235 2
c0 -8 -8 -16 -17 -18 -13 -2 -18 3 -18 18 0 15 5 20 18 18 9 -2 17 -10 17 -18z
m-2387 -101 c4 -74 -5 -81 -110 -77 l-83 3 -3 54 c-5 83 -6 82 100 79 l93 -3
3 -56z m2580 -6 c2 -35 -1 -63 -5 -64 -60 -5 -171 -2 -180 5 -14 9 -18 107 -6
120 4 4 48 5 98 4 l90 -3 3 -62z m-2528 -107 c0 -21 8 -40 21 -52 20 -18 44
-19 553 -18 639 0 502 0 1148 0 417 -1 540 2 550 12 20 20 23 14 23 -58 l1
-70 -1157 0 -1157 0 5 63 c5 57 3 66 -20 93 l-26 29 21 22 c26 28 38 21 38
-21z m2570 -1 c0 -33 -2 -35 -20 -25 -23 12 -26 30 -8 48 20 20 28 14 28 -23z
m-241 12 c8 -11 6 -18 -9 -32 -20 -18 -20 -17 -20 13 0 34 10 41 29 19z
m-2391 -56 c9 -5 12 -26 10 -67 l-3 -59 -95 0 -95 0 -3 59 c-2 41 1 62 10 67
7 5 47 9 88 9 41 0 81 -4 88 -9z m2587 -61 l0 -65 -75 -3 c-116 -5 -120 -3
-120 67 0 38 5 61 13 65 6 2 50 4 97 3 l85 -2 0 -65z"/>
<path d="M1610 1935 c140 -25 237 -64 344 -139 32 -23 66 -46 75 -51 10 -6 25
-18 35 -27 9 -10 24 -21 32 -26 8 -5 16 -15 18 -23 1 -8 17 -34 35 -59 73 -98
150 -295 151 -385 0 -16 5 -37 11 -45 11 -15 7 64 -6 135 -16 84 -109 279
-143 299 -12 7 -12 10 -1 17 11 6 -2 24 -52 74 -36 37 -73 67 -82 69 -9 1 -27
11 -39 23 -47 42 -216 122 -295 138 -15 4 -59 8 -98 10 l-70 4 85 -14z"/>
<path d="M1340 1864 c-89 -19 -142 -39 -227 -87 -74 -41 -85 -55 -58 -77 11
-9 21 -7 47 14 80 60 233 114 344 120 52 2 59 6 62 24 3 20 -1 22 -50 21 -29
0 -82 -7 -118 -15z"/>
<path d="M1537 1859 c-4 -15 2 -19 32 -24 177 -25 319 -93 434 -209 105 -104
177 -246 198 -389 8 -51 15 -74 25 -74 32 0 3 157 -49 270 -115 248 -326 404
-599 441 -29 4 -37 1 -41 -15z"/>
<path d="M1420 1770 c-179 -24 -342 -121 -444 -263 -69 -96 -100 -173 -115
-284 -11 -76 4 -66 17 11 6 36 17 81 26 100 9 20 23 53 32 73 21 47 58 97 122
168 l51 56 63 -81 c38 -48 64 -74 66 -65 2 8 -17 41 -42 74 -26 34 -44 66 -40
74 9 24 122 75 221 101 51 13 95 21 98 18 3 -3 5 -47 5 -98 l0 -94 -52 -30
c-45 -25 -142 -66 -199 -83 -14 -5 -13 -14 10 -82 24 -71 27 -75 51 -70 20 5
85 34 143 63 4 2 7 -46 7 -107 l0 -111 -295 0 c-229 0 -295 -3 -295 -12 0 -10
64 -12 295 -10 l295 3 0 -231 c0 -227 0 -230 21 -230 20 0 21 -4 17 -90 -3
-83 -1 -90 16 -90 17 0 18 7 14 90 l-4 90 63 0 63 0 0 230 0 231 260 -3 c203
-2 260 0 260 10 0 9 -59 12 -260 12 l-260 0 0 226 0 226 -64 -4 -64 -3 4 98
c5 109 14 100 -86 87z m170 -430 c3 -113 3 -302 0 -420 l-5 -215 -50 -7 c-27
-4 -52 -5 -55 -2 -3 3 -7 151 -10 329 -6 388 -1 372 -106 335 -65 -22 -67 -23
-80 -5 -8 10 -14 29 -14 42 0 19 15 30 93 66 50 24 103 54 117 65 18 16 36 21
65 19 l40 -2 5 -205z"/>
<path d="M884 1692 c-87 -83 -115 -128 -168 -261 -34 -84 -63 -225 -53 -252 7
-20 12 -1 27 96 23 150 112 321 219 421 36 34 64 64 61 68 -3 3 -42 -30 -86
-72z"/>
<path d="M1555 1761 c11 -5 52 -16 90 -25 236 -55 421 -246 471 -487 19 -93
29 -102 20 -21 -23 236 -232 464 -481 527 -64 16 -137 20 -100 6z"/>
<path d="M973 1669 c-63 -60 -107 -116 -147 -190 -37 -68 -86 -236 -86 -293
l1 -31 13 24 14 24 8 -24 c6 -19 10 -7 21 59 23 145 106 304 211 406 34 33 39
41 27 52 -7 8 -15 14 -17 14 -2 0 -22 -18 -45 -41z"/>
<path d="M1100 1534 c0 -5 20 -30 45 -54 25 -24 45 -40 45 -34 0 5 -20 30 -45
54 -25 24 -45 40 -45 34z"/>
<path d="M733 1138 c-8 -14 8 -28 33 -28 16 0 24 6 24 18 0 12 -8 17 -26 17
-14 0 -28 -3 -31 -7z"/>
<path d="M2210 1128 c0 -13 6 -18 18 -16 9 2 17 10 17 17 0 8 -8 15 -17 17
-12 1 -18 -4 -18 -18z"/>
<path d="M745 1042 c24 -249 192 -482 428 -592 67 -32 203 -70 247 -70 20 0
27 5 26 17 -1 14 -23 23 -98 40 -141 32 -287 115 -375 212 -88 99 -155 240
-176 373 -11 66 -15 78 -21 59 l-8 -24 -15 24 c-13 22 -14 19 -8 -39z"/>
<path d="M2205 1041 c-10 -82 -49 -197 -92 -271 -49 -83 -170 -204 -253 -253
-73 -42 -195 -84 -273 -93 -43 -5 -53 -10 -53 -25 0 -25 27 -25 133 1 252 60
456 248 538 493 33 100 44 204 22 204 -11 0 -17 -16 -22 -56z"/>
<path d="M664 1028 c9 -82 25 -144 60 -225 28 -67 113 -213 124 -213 4 0 45
-37 92 -81 92 -89 187 -142 320 -178 85 -24 192 -37 170 -22 -8 6 -27 11 -41
11 -14 0 -59 9 -100 20 -147 38 -264 104 -354 198 -32 34 -64 62 -70 62 -14 0
-107 162 -139 241 -14 37 -32 105 -39 153 -17 104 -32 128 -23 34z"/>
<path d="M2306 1073 c-2 -10 -7 -45 -11 -78 -13 -113 -75 -254 -160 -365 -23
-30 -45 -64 -49 -74 -3 -10 -9 -16 -13 -13 -3 4 -29 -13 -57 -37 -59 -49 -131
-94 -201 -125 -58 -26 -188 -61 -224 -61 -14 0 -33 -5 -41 -10 -13 -9 -13 -10
0 -10 33 0 148 22 195 37 81 26 205 91 278 146 146 111 278 352 293 538 6 65
1 90 -10 52z"/>
<path d="M861 1050 c-2 -54 25 -145 66 -224 46 -89 172 -218 258 -263 75 -39
185 -73 234 -72 29 0 19 5 -49 23 -144 38 -230 86 -314 174 -97 102 -151 202
-181 336 -11 51 -13 55 -14 26z"/>
<path d="M2115 1003 c-27 -126 -77 -215 -175 -313 -97 -98 -165 -136 -305
-174 -71 -19 -82 -25 -54 -25 51 -1 162 34 236 75 167 92 298 283 320 462 9
77 -3 63 -22 -25z"/>
<path d="M1885 940 c-43 -44 -77 -82 -74 -84 6 -6 159 144 159 155 0 5 -1 9
-3 9 -1 0 -38 -36 -82 -80z"/>
<path d="M1472 398 c5 -34 38 -37 38 -4 0 20 -5 26 -21 26 -15 0 -20 -5 -17
-22z"/>
</g>
</svg>
