<?xml version="1.0" standalone="no"?>
<!DOCTYPE svg PUBLIC "-//W3C//DTD SVG 20010904//EN"
 "http://www.w3.org/TR/2001/REC-SVG-20010904/DTD/svg10.dtd">
<svg version="1.0" xmlns="http://www.w3.org/2000/svg"
 width="300.000000pt" height="229.000000pt" viewBox="0 0 300.000000 229.000000"
 preserveAspectRatio="xMidYMid meet">
<metadata>
Created by potrace 1.10, written by Peter Selinger 2001-2011
</metadata>
<g transform="translate(0.000000,229.000000) scale(0.100000,-0.100000)"
fill="#000000" stroke="none">
<path d="M1508 2173 l-1438 -3 0 -1060 0 -1060 1440 0 1440 0 0 1065 c0 586
-1 1064 -2 1063 -2 -2 -650 -4 -1440 -5z m1128 -59 c-3 -9 -6 -38 -6 -66 0
-41 -3 -48 -13 -39 -10 8 -319 11 -1102 11 l-1089 0 -23 -22 c-15 -14 -23 -33
-23 -55 0 -38 -9 -41 -35 -13 -18 20 -18 21 3 43 18 19 22 35 22 90 l0 67
1136 0 c1032 0 1136 -1 1130 -16z m-2310 -6 c8 -11 10 -52 5 -105 -1 -10 -27
-13 -96 -13 l-95 0 0 58 c0 32 3 62 7 65 12 13 170 8 179 -5z m2539 -53 l0
-60 -95 0 -95 0 -3 49 c-5 77 -5 77 100 74 l93 -3 0 -60z m-1375 -92 l0 -29
-73 -1 c-90 -2 -234 -46 -327 -100 -35 -21 -96 -68 -136 -105 -39 -38 -77 -68
-83 -68 -6 0 -82 57 -169 127 -137 111 -242 185 -242 170 0 -2 87 -75 194
-160 106 -86 199 -163 206 -172 11 -13 23 -5 95 63 143 138 334 221 513 223
l52 1 0 37 0 36 545 0 545 0 0 -433 0 -433 -155 3 c-119 2 -155 0 -155 -9 0
-10 38 -13 155 -13 l155 0 0 -430 0 -430 -545 0 -545 0 0 35 c0 24 -5 35 -15
35 -10 0 -15 -11 -15 -35 l0 -35 -537 0 -538 0 3 430 2 430 146 0 c106 0 145
3 142 12 -3 8 -46 10 -146 9 l-142 -2 -2 431 c-2 238 -2 432 -1 433 1 1 243 4
537 6 l536 3 0 -29z m1420 -13 c0 -33 -11 -38 -30 -15 -10 12 -10 18 0 30 19
23 30 18 30 -15z m-2579 -50 c1 -5 1 -30 1 -55 0 -25 0 -49 -1 -55 -1 -6 -40
-10 -96 -10 l-95 0 0 58 c0 32 3 62 7 65 11 11 183 8 184 -3z m2534 -55 l0
-60 -95 0 -95 0 -3 49 c-5 77 -5 77 100 74 l93 -3 0 -60z m-2485 -105 c0 -45
-8 -49 -35 -20 -17 19 -17 21 0 40 27 29 35 25 35 -20z m2530 0 c0 -34 -2 -35
-30 -18 -18 11 -18 14 -3 30 23 26 33 22 33 -12z m-2579 -50 c1 -5 1 -30 1
-55 0 -25 0 -49 -1 -55 -1 -6 -40 -10 -96 -10 l-95 0 0 65 0 65 95 0 c56 0 95
-4 96 -10z m2534 -55 l0 -60 -95 0 -95 0 -3 49 c-5 77 -5 77 100 74 l93 -3 0
-60z m-2485 -105 c0 -45 -8 -49 -35 -20 -17 19 -17 21 0 40 27 29 35 25 35
-20z m2530 0 c0 -33 -11 -38 -30 -15 -15 18 -6 45 15 45 10 0 15 -10 15 -30z
m-2579 -50 c1 -5 1 -30 1 -55 0 -25 0 -49 -1 -55 -1 -6 -40 -10 -96 -10 l-95
0 0 65 0 65 95 0 c56 0 95 -4 96 -10z m2534 -55 l0 -60 -95 0 -95 0 -3 49 c-5
77 -5 77 100 74 l93 -3 0 -60z m-2485 -105 c0 -45 -8 -49 -35 -20 -17 19 -17
21 0 40 27 29 35 25 35 -20z m2530 0 c0 -33 -11 -38 -30 -15 -15 18 -6 45 15
45 10 0 15 -10 15 -30z m-2579 -50 c1 -5 1 -30 1 -55 0 -25 0 -49 -1 -55 -1
-6 -40 -10 -96 -10 l-95 0 0 65 0 65 95 0 c56 0 95 -4 96 -10z m2534 -55 l0
-60 -95 0 -95 0 -3 49 c-5 77 -5 77 100 74 l93 -3 0 -60z m-2482 -85 c6 -23
-2 -60 -13 -60 -4 0 -15 9 -25 20 -17 19 -17 21 0 40 10 11 21 20 25 20 4 0
10 -9 13 -20z m2525 -17 c-4 -33 -24 -41 -33 -14 -8 25 1 41 21 41 11 0 14 -8
12 -27z m-240 0 c-5 -25 -28 -28 -28 -4 0 12 6 21 16 21 9 0 14 -7 12 -17z
m-2337 -50 c4 -35 3 -106 -2 -114 -3 -6 -43 -9 -95 -7 l-89 3 -3 63 -3 62 96
0 c52 0 95 -3 96 -7z m2534 -58 l0 -60 -95 0 -95 0 -3 49 c-5 77 -5 77 100 74
l93 -3 0 -60z m-2485 -105 c0 -45 -8 -49 -35 -20 -17 19 -17 21 0 40 27 29 35
25 35 -20z m2530 0 c0 -33 -11 -38 -30 -15 -15 18 -6 45 15 45 10 0 15 -10 15
-30z m-2579 -47 c4 -35 3 -106 -2 -114 -3 -6 -43 -9 -95 -7 l-89 3 -3 63 -3
62 96 0 c52 0 95 -3 96 -7z m2534 -58 l0 -60 -95 0 -95 0 -3 49 c-5 77 -5 77
100 74 l93 -3 0 -60z m-2485 -105 c0 -45 -8 -49 -35 -20 -17 19 -17 21 0 40
27 29 35 25 35 -20z m2530 6 c0 -31 -14 -40 -30 -21 -15 18 -6 45 15 45 9 0
15 -9 15 -24z m-2579 -53 c4 -35 3 -106 -2 -114 -3 -6 -43 -9 -95 -7 l-89 3
-3 63 -3 62 96 0 c52 0 95 -3 96 -7z m2534 -58 l0 -60 -95 0 -95 0 -3 49 c-5
77 -5 77 100 74 l93 -3 0 -60z m-2485 -105 c0 -45 -8 -49 -35 -20 -17 19 -17
21 0 40 27 29 35 25 35 -20z m2530 6 c0 -31 -14 -40 -30 -21 -15 18 -6 45 15
45 9 0 15 -9 15 -24z m-2583 -50 c11 -11 9 -107 -3 -117 -7 -5 -50 -9 -96 -7
l-83 3 -3 59 c-2 33 1 62 6 65 12 7 172 5 179 -3z m2533 -2 c6 -6 10 -35 8
-65 l-3 -54 -95 0 -95 0 -3 53 c-2 30 2 59 8 67 13 16 164 15 180 -1z m-2480
-156 c0 -19 9 -41 22 -55 l21 -23 529 0 c336 0 528 4 528 10 0 6 9 6 26 0 34
-13 1079 -13 1104 0 16 9 19 4 22 -48 2 -31 3 -60 1 -64 -3 -5 -512 -8 -1134
-8 l-1129 0 0 67 c0 55 -4 71 -22 90 -21 22 -21 23 -3 43 25 28 35 25 35 -12z
m2530 -2 c0 -31 -14 -40 -30 -21 -15 18 -6 45 15 45 9 0 15 -9 15 -24z m-51
-50 c7 -8 11 -37 9 -68 l-3 -53 -95 0 -95 0 -3 53 c-4 75 5 82 98 82 55 0 81
-4 89 -14z m-2528 -3 c6 -48 2 -106 -7 -114 -7 -5 -50 -9 -96 -7 l-83 3 -3 63
-3 62 96 0 c52 0 95 -3 96 -7z"/>
<path d="M1627 1906 c147 -28 288 -91 384 -172 100 -84 111 -94 105 -94 -4 0
9 -21 29 -47 74 -97 155 -303 155 -394 0 -15 5 -31 10 -34 16 -10 12 55 -9
138 -41 157 -143 338 -236 414 -136 113 -310 192 -435 199 l-75 4 72 -14z"/>
<path d="M1440 1849 c-184 -23 -326 -89 -457 -212 -29 -28 -53 -55 -53 -62 0
-6 -11 -22 -24 -34 -54 -51 -136 -267 -136 -359 0 -29 2 -33 15 -22 12 10 15
10 15 0 0 -30 11 1 24 71 18 94 46 169 92 244 20 34 31 61 25 63 -6 2 -11 8
-11 14 0 6 7 7 16 4 11 -4 40 16 92 64 116 110 306 190 447 190 31 0 35 3 35
25 0 14 -3 24 -7 24 -5 -1 -37 -5 -73 -10z"/>
<path d="M1547 1831 c-4 -16 3 -19 49 -25 303 -35 560 -287 605 -591 9 -59 14
-72 26 -68 21 8 11 86 -22 190 -87 273 -320 466 -611 507 -35 5 -42 3 -47 -13z"/>
<path d="M1408 1740 c-139 -24 -266 -93 -366 -200 l-32 -35 21 -15 c12 -8 111
-85 219 -172 109 -87 201 -158 204 -158 22 0 -70 83 -164 149 -31 22 -88 70
-199 168 l-36 32 30 31 c40 43 129 103 190 128 42 18 192 62 210 62 3 0 5 -38
5 -85 l0 -84 -37 -6 c-80 -14 -172 -52 -222 -92 l-24 -20 44 -56 c24 -30 48
-56 52 -56 5 -1 23 10 40 22 34 26 108 57 132 57 13 0 15 -24 15 -145 l0 -146
-307 1 c-225 1 -308 -1 -308 -10 0 -8 84 -11 310 -11 275 1 308 -1 290 -14
-191 -140 -254 -232 -255 -372 l0 -63 135 0 135 0 0 -90 c0 -73 3 -90 15 -90
12 0 15 17 15 90 l0 90 148 0 147 0 -3 80 -4 81 -144 -3 -144 -3 0 61 0 62 83
60 c45 33 93 72 106 86 l24 26 209 0 c160 0 208 3 208 13 0 9 -45 11 -201 9
l-201 -4 28 47 c21 36 28 64 32 120 5 88 -8 134 -56 187 -47 52 -102 79 -174
85 l-58 6 0 93 0 94 -32 -1 c-18 -1 -54 -5 -80 -9z m213 -231 c136 -35 189
-179 120 -326 -24 -51 -43 -72 -108 -123 -203 -160 -233 -190 -233 -237 0 -44
25 -50 194 -52 88 -1 163 -4 168 -7 4 -3 8 -20 8 -38 l0 -34 -137 -3 c-76 -2
-190 -2 -253 1 l-115 5 -3 43 c-7 96 87 216 293 374 117 89 138 220 48 299
-34 30 -39 31 -107 27 -53 -2 -86 -11 -130 -32 l-59 -29 -24 27 c-29 34 -20
49 47 79 100 45 188 53 291 26z m-35 -133 c29 -29 34 -41 34 -80 0 -54 -25
-108 -69 -150 l-30 -29 -3 147 c-3 137 -2 146 16 146 10 0 33 -15 52 -34z
m-96 -525 c0 -48 -1 -49 -30 -47 -17 1 -30 5 -30 9 0 4 0 11 0 16 0 10 48 71
56 71 2 0 4 -22 4 -49z"/>
<path d="M1562 1736 c3 -4 37 -14 75 -21 137 -29 294 -131 377 -248 40 -56 86
-161 101 -235 15 -72 25 -90 25 -46 0 52 -29 145 -71 225 -68 131 -186 235
-329 292 -61 24 -193 48 -178 33z"/>
<path d="M822 1570 c-12 -16 -22 -33 -22 -39 0 -5 -3 -11 -8 -13 -7 -3 -46
-93 -70 -163 -16 -45 -32 -132 -32 -172 0 -54 6 -38 23 57 18 102 64 226 112
298 19 30 35 56 35 58 0 13 -19 0 -38 -26z"/>
<path d="M982 1463 c-34 -49 -61 -109 -82 -184 -20 -73 -28 -158 -11 -114 5
11 16 51 25 88 9 38 34 105 56 149 42 82 48 111 12 61z"/>
<path d="M762 1114 c2 -12 12 -18 28 -18 36 0 33 28 -3 32 -23 3 -28 0 -25
-14z"/>
<path d="M2210 1110 c0 -15 5 -20 18 -18 9 2 17 10 17 18 0 8 -8 16 -17 18
-13 2 -18 -3 -18 -18z"/>
<path d="M2197 986 c-57 -303 -289 -521 -609 -571 -24 -4 -38 -11 -38 -20 0
-38 175 1 305 68 94 49 229 177 284 270 66 112 126 344 89 344 -10 0 -19 -27
-31 -91z"/>
<path d="M691 1035 c-1 -46 21 -144 51 -230 41 -117 169 -280 288 -367 90 -66
250 -126 353 -133 78 -5 79 -5 -68 27 -289 62 -542 325 -595 618 -7 36 -15 79
-20 95 -8 29 -8 29 -9 -10z"/>
<path d="M770 1038 c0 -60 38 -186 82 -271 59 -114 190 -246 303 -304 131 -68
302 -106 302 -68 0 9 -10 17 -21 19 -162 31 -268 76 -361 151 -70 57 -82 70
-137 150 -54 77 -95 176 -114 272 -13 71 -24 104 -24 73 0 -10 -3 -10 -15 0
-13 11 -15 7 -15 -22z"/>
<path d="M884 1020 c34 -267 267 -502 533 -536 68 -9 50 3 -39 25 -42 11 -109
36 -149 57 -153 76 -288 256 -324 427 -17 85 -30 102 -21 27z"/>
<path d="M2122 1010 c-38 -182 -131 -319 -286 -421 -58 -38 -194 -89 -239 -89
-12 0 -29 -5 -37 -11 -30 -21 101 1 176 30 101 39 161 80 237 161 99 104 176
276 165 367 -2 20 -7 10 -16 -37z"/>
<path d="M2308 1057 c-5 -10 -8 -29 -8 -41 0 -13 -9 -58 -20 -102 -79 -311
-336 -546 -650 -596 -74 -11 -79 -13 -42 -16 107 -8 327 82 446 181 120 101
227 276 266 436 20 79 25 181 8 138z"/>
<path d="M1490 395 c0 -16 6 -25 15 -25 9 0 15 9 15 25 0 16 -6 25 -15 25 -9
0 -15 -9 -15 -25z"/>
</g>
</svg>
