<?xml version="1.0" standalone="no"?>
<!DOCTYPE svg PUBLIC "-//W3C//DTD SVG 20010904//EN"
 "http://www.w3.org/TR/2001/REC-SVG-20010904/DTD/svg10.dtd">
<svg version="1.0" xmlns="http://www.w3.org/2000/svg"
 width="300.000000pt" height="220.000000pt" viewBox="0 0 300.000000 220.000000"
 preserveAspectRatio="xMidYMid meet">
<metadata>
Created by potrace 1.10, written by Peter Selinger 2001-2011
</metadata>
<g transform="translate(0.000000,220.000000) scale(0.100000,-0.100000)"
fill="#000000" stroke="none">
<path d="M48 1120 l-3 -1060 1437 0 1437 0 1 1060 0 1060 -1435 0 -1435 0 -2
-1060z m2554 945 c-4 -63 -4 -65 -25 -52 -27 15 -1072 23 -1082 8 -3 -6 -18
-6 -37 0 -18 5 -246 6 -546 2 -581 -7 -552 -3 -552 -83 0 -47 -9 -50 -38 -11
-21 29 -21 29 -1 46 15 15 19 31 19 87 l0 68 1133 0 1132 0 -3 -65z m224 51
c19 -7 19 -99 0 -115 -9 -8 -45 -11 -98 -9 l-83 3 -3 59 c-2 33 1 62 6 65 12
7 158 5 178 -3z m-2518 -40 c2 -22 1 -50 -3 -63 -5 -23 -8 -24 -98 -21 l-92 3
-3 49 c-5 77 -5 77 100 74 l93 -3 3 -39z m1150 -107 l-3 -31 -80 -3 c-253 -10
-541 -214 -649 -459 -14 -31 -28 -56 -32 -56 -4 0 -60 18 -125 40 -115 39
-175 52 -137 30 9 -6 67 -28 130 -50 62 -22 121 -45 131 -51 23 -13 17 -19 59
66 96 197 238 331 429 405 79 30 235 63 280 58 21 -3 24 1 27 35 l3 37 540 0
539 0 0 -430 0 -430 -150 0 c-113 0 -150 -3 -150 -12 0 -10 35 -12 150 -10
l150 3 0 -430 0 -431 -540 0 -540 0 0 35 c0 27 -4 35 -18 35 -15 0 -17 -6 -14
-35 l4 -35 -536 0 -536 0 0 430 0 431 142 -2 c96 -1 143 2 146 10 3 8 -40 11
-142 11 l-146 0 0 430 0 430 528 3 c290 1 531 3 535 5 5 1 7 -12 5 -29z m1410
-31 c-3 -21 -4 -21 -21 -4 -17 18 -17 19 0 38 15 17 18 18 21 4 2 -9 2 -26 0
-38z m-233 17 c0 -10 -6 -20 -12 -22 -8 -3 -13 5 -13 22 0 17 5 25 13 23 6 -3
12 -13 12 -23z m-2337 -47 c17 -17 15 -103 -2 -117 -9 -8 -45 -11 -98 -9 l-83
3 -3 53 c-2 31 2 60 9 68 15 18 159 20 177 2z m2530 0 c17 -17 15 -103 -2
-117 -9 -8 -45 -11 -98 -9 l-83 3 -3 54 c-2 29 -1 60 2 67 7 18 166 20 184 2z
m-2468 -163 c0 -30 -2 -55 -5 -55 -3 0 -17 12 -29 27 l-24 27 22 28 c11 15 24
27 29 27 4 1 7 -24 7 -54z m2510 -2 c0 -36 0 -36 -20 -18 -19 17 -19 19 -4 37
23 24 24 24 24 -19z m-235 4 c0 -26 -20 -25 -23 2 -3 16 1 22 10 19 7 -3 13
-12 13 -21z m-2337 -49 c17 -17 15 -103 -2 -117 -9 -8 -45 -11 -98 -9 l-83 3
-3 59 c-2 41 1 62 10 67 21 13 162 11 176 -3z m2530 0 c7 -7 12 -33 12 -58 0
-25 -5 -51 -12 -58 -12 -12 -143 -17 -172 -6 -12 5 -16 20 -16 63 0 32 3 61 7
64 12 12 168 8 181 -5z m-2468 -151 c0 -55 -8 -63 -36 -36 l-23 21 21 29 c30
40 38 36 38 -14z m2510 -14 c0 -36 0 -36 -20 -18 -19 17 -19 19 -4 37 23 24
24 24 24 -19z m-232 4 c2 -10 -3 -17 -12 -17 -10 0 -16 9 -16 21 0 24 23 21
28 -4z m-2340 -49 c7 -7 12 -33 12 -58 0 -25 -5 -51 -12 -58 -12 -12 -143 -17
-172 -6 -12 5 -16 20 -16 63 0 32 3 61 7 64 12 12 168 8 181 -5z m2531 -2 c7
-8 11 -36 9 -63 l-3 -48 -97 -3 -98 -3 0 59 c0 32 3 62 7 65 3 4 43 7 88 7 59
0 86 -4 94 -14z m-2479 -163 l0 -46 -25 23 -25 24 22 23 c12 13 23 23 25 23 2
0 3 -21 3 -47z m2520 0 l0 -37 -22 22 c-23 23 -23 23 -4 38 26 19 26 19 26
-23z m-231 13 c9 -11 8 -15 -5 -20 -23 -9 -24 -8 -24 14 0 23 13 26 29 6z
m-2335 -62 c11 -28 6 -103 -6 -110 -18 -11 -160 -11 -175 0 -14 9 -18 107 -6
119 3 4 46 7 94 7 70 0 88 -3 93 -16z m2530 0 c3 -9 6 -31 6 -49 0 -63 -3 -65
-106 -65 l-94 0 0 58 c0 32 3 62 7 65 3 4 46 7 94 7 70 0 88 -3 93 -16z
m-2476 -138 c2 -10 1 -29 -3 -43 l-6 -26 -24 23 c-22 21 -23 24 -8 47 17 26
36 26 41 -1z m2512 -16 c0 -32 -9 -37 -28 -18 -7 7 -8 17 -1 30 15 27 29 22
29 -12z m-235 10 c4 -6 1 -18 -6 -26 -11 -14 -13 -14 -21 0 -15 26 12 51 27
26z m-2330 -115 l0 -60 -95 0 -95 0 -3 49 c-5 77 -5 77 100 74 l93 -3 0 -60z
m2529 49 c9 -23 7 -87 -2 -102 -6 -9 -33 -12 -98 -10 l-89 3 -3 49 c-5 76 -4
76 97 76 72 0 90 -3 95 -16z m-2484 -161 l0 -46 -25 23 c-23 22 -24 30 -2 58
18 23 27 12 27 -35z m2520 7 c0 -33 -11 -38 -30 -15 -10 12 -10 18 0 30 19 23
30 18 30 -15z m-2565 -105 l0 -60 -95 0 -95 0 -3 49 c-5 77 -5 77 100 74 l93
-3 0 -60z m2529 49 c9 -23 7 -87 -2 -102 -6 -9 -33 -12 -98 -10 l-89 3 -3 49
c-5 76 -4 76 97 76 72 0 90 -3 95 -16z m-2484 -161 l-1 -48 -25 29 c-24 27
-24 29 -8 47 26 29 34 23 34 -28z m2518 -3 c-3 -19 -5 -20 -23 -6 -20 14 -20
14 0 36 17 19 21 20 23 6 2 -9 2 -25 0 -36z m-2563 -95 l0 -60 -95 0 -95 0 -3
49 c-5 77 -5 77 100 74 l93 -3 0 -60z m2529 49 c9 -23 7 -87 -2 -102 -6 -9
-33 -12 -98 -10 l-89 3 -3 49 c-5 76 -4 76 97 76 72 0 90 -3 95 -16z m-2484
-161 l-1 -48 -25 29 c-24 27 -24 29 -8 47 26 29 34 23 34 -28z m2520 7 c0 -34
-3 -36 -25 -14 -12 12 -13 19 -4 30 18 22 29 16 29 -16z m-232 3 c-5 -25 -28
-28 -28 -4 0 12 6 21 16 21 9 0 14 -7 12 -17z m193 -55 c14 -21 10 -94 -5
-107 -9 -8 -45 -11 -98 -9 l-83 3 -3 59 c-2 33 1 62 6 65 20 12 175 3 183 -11z
m-2526 -53 l0 -60 -95 0 -95 0 -3 49 c-5 77 -5 77 100 74 l93 -3 0 -60z m82
-155 c25 -20 38 -20 544 -20 314 0 519 4 519 9 0 6 12 6 32 0 19 -5 262 -9
553 -9 446 0 524 2 542 15 21 15 21 14 25 -51 2 -39 -1 -68 -7 -70 -5 -2 -514
-3 -1130 -2 l-1120 3 -3 64 c-2 43 -9 73 -22 91 -19 26 -19 27 3 49 l22 22 8
-40 c5 -25 18 -48 34 -61z m2481 41 c-3 -18 -5 -18 -22 -5 -19 13 -19 14 0 35
16 18 20 19 22 5 2 -9 2 -25 0 -35z m-230 12 c-5 -25 -28 -28 -28 -4 0 12 6
21 16 21 9 0 14 -7 12 -17z m-2340 -46 c13 -11 16 -95 4 -115 -6 -9 -33 -12
-98 -10 l-89 3 -3 53 c-2 30 2 59 7 66 13 15 160 18 179 3z m2530 1 c17 -17
15 -103 -2 -117 -9 -8 -45 -11 -98 -9 l-83 3 -3 59 c-2 41 1 62 10 67 21 13
162 11 176 -3z"/>
<path d="M1545 1920 c17 -4 71 -18 120 -29 223 -51 416 -205 520 -416 48 -97
72 -175 82 -270 7 -69 22 -47 16 24 -11 122 -102 327 -191 427 -100 112 -261
214 -392 247 -62 16 -205 32 -155 17z"/>
<path d="M1389 1850 c-305 -29 -566 -266 -635 -575 -7 -33 -13 -76 -13 -95 0
-30 1 -32 10 -16 9 15 13 16 20 5 10 -16 11 -11 28 77 14 75 14 85 0 81 -6 -1
-14 4 -17 12 -3 10 1 13 16 9 18 -5 27 5 61 76 70 143 174 247 316 316 87 43
190 71 267 72 43 1 48 4 48 25 0 13 -6 22 -12 22 -7 -1 -47 -5 -89 -9z"/>
<path d="M1519 1831 c7 -12 21 -21 36 -21 49 0 162 -33 230 -67 128 -64 209
-136 285 -254 49 -75 75 -144 96 -252 11 -56 21 -84 30 -84 18 0 17 24 -1 111
-45 212 -166 381 -355 494 -65 39 -190 80 -266 88 -66 7 -66 7 -55 -15z"/>
<path d="M1398 1749 c-171 -22 -342 -128 -440 -272 -38 -56 -83 -146 -76 -151
1 -1 92 -33 201 -70 175 -60 227 -73 204 -49 -7 6 -122 47 -279 99 -88 29 -92
38 -57 101 86 156 221 256 404 303 39 10 78 21 88 25 15 6 17 -1 17 -82 l0
-90 -67 -6 c-65 -6 -199 -58 -191 -74 1 -5 18 -34 37 -66 30 -52 35 -56 50
-43 21 19 104 46 141 46 l30 0 0 -115 0 -115 -75 0 -74 0 6 -30 6 -30 -243 0
c-167 0 -241 -3 -238 -11 2 -7 80 -10 241 -9 l237 1 -2 -33 -3 -33 73 -3 72
-3 0 -126 0 -125 -57 4 c-33 2 -78 14 -105 28 -27 13 -49 22 -51 19 -19 -28
-67 -112 -67 -118 0 -20 138 -66 223 -76 l58 -7 -2 -76 c-2 -65 0 -78 14 -80
15 -3 17 8 17 82 l0 86 38 0 c52 0 154 52 192 98 31 38 60 115 60 161 0 71
-42 144 -105 183 -30 18 -29 18 205 17 158 0 236 3 238 10 3 8 -76 11 -255 11
-241 1 -256 2 -228 17 76 40 115 105 115 193 0 121 -77 201 -206 218 l-56 7
-2 94 c0 54 -5 95 -11 96 -5 1 -40 -2 -77 -6z m149 -229 c174 -38 220 -215 89
-339 -20 -19 -36 -38 -36 -42 0 -3 29 -38 64 -78 63 -70 76 -99 76 -165 -1
-77 -83 -176 -165 -197 -22 -6 -54 -14 -71 -18 -36 -10 -174 10 -227 33 -39
16 -45 31 -24 59 11 15 17 14 72 -5 53 -18 69 -19 132 -11 86 12 116 30 143
83 25 48 25 94 2 139 -29 59 -83 86 -192 98 -48 6 -60 15 -60 50 0 16 7 24 23
27 85 16 145 31 160 38 76 38 75 204 -1 241 -39 19 -132 20 -183 3 -24 -9 -51
-16 -60 -16 -17 0 -43 46 -34 60 7 11 94 40 153 50 49 8 54 8 139 -10z m-15
-130 c28 -28 30 -35 26 -81 -4 -37 -12 -58 -33 -79 -16 -17 -30 -28 -32 -26
-8 8 -8 216 0 216 5 0 22 -14 39 -30z m7 -385 c63 -54 60 -146 -8 -192 -19
-13 -37 -23 -40 -23 -3 0 -6 54 -6 120 0 132 3 137 54 95z"/>
<path d="M1524 1741 c4 -6 16 -11 28 -11 39 0 143 -32 202 -61 91 -46 128 -78
224 -188 36 -42 93 -169 104 -235 13 -78 27 -105 28 -54 0 49 -42 180 -80 245
-68 118 -191 222 -324 273 -80 31 -194 50 -182 31z"/>
<path d="M696 1362 c-10 -16 -36 -135 -36 -164 0 -16 5 -28 10 -28 6 0 10 17
10 38 1 20 7 64 15 97 13 56 14 78 1 57z"/>
<path d="M862 1247 c-8 -31 -12 -65 -9 -75 6 -27 29 65 25 101 -3 28 -5 24
-16 -26z"/>
<path d="M733 1118 c2 -7 14 -13 27 -13 13 0 25 6 28 13 2 8 -7 12 -28 12 -21
0 -30 -4 -27 -12z"/>
<path d="M2173 1118 c2 -7 12 -13 22 -13 10 0 20 6 23 13 2 7 -6 12 -23 12
-17 0 -25 -5 -22 -12z"/>
<path d="M2166 1004 c-21 -109 -47 -177 -97 -255 -117 -183 -283 -286 -521
-324 -27 -4 -36 -10 -31 -20 13 -36 153 -7 289 60 199 97 342 284 388 507 19
94 20 104 2 111 -10 4 -17 -16 -30 -79z"/>
<path d="M740 1058 c0 -54 31 -171 65 -246 94 -202 264 -345 479 -403 91 -25
145 -25 142 -1 -2 12 -16 19 -50 24 -279 40 -513 258 -572 532 -8 39 -17 82
-20 95 -4 20 -7 22 -15 10 -8 -12 -10 -12 -19 1 -8 12 -10 9 -10 -12z"/>
<path d="M854 1031 c19 -187 164 -390 341 -477 73 -35 170 -64 215 -64 37 1 8
14 -65 30 -169 36 -340 173 -414 331 -21 46 -45 111 -52 144 -17 83 -32 104
-25 36z"/>
<path d="M2096 1064 c-3 -9 -6 -26 -6 -38 0 -40 -41 -149 -80 -216 -67 -111
-179 -211 -288 -257 -41 -17 -45 -18 -130 -37 -76 -17 -89 -26 -39 -26 53 0
183 44 252 85 71 43 164 131 207 198 45 70 88 183 95 249 6 57 1 74 -11 42z"/>
<path d="M2267 1029 c-32 -270 -195 -503 -436 -623 -80 -40 -115 -52 -229 -77
l-87 -19 70 5 c119 8 291 77 385 154 25 20 57 44 73 54 15 10 38 34 52 55 68
101 80 121 105 167 51 93 97 275 81 317 -6 17 -9 10 -14 -33z"/>
<path d="M660 1047 c0 -22 11 -87 24 -142 13 -56 69 -179 109 -241 126 -193
354 -332 569 -348 l73 -5 -85 17 c-114 24 -177 46 -258 91 -103 57 -122 71
-191 141 -108 110 -203 304 -218 448 -6 54 -23 83 -23 39z"/>
<path d="M1090 944 c0 -6 14 -23 30 -39 17 -16 30 -24 30 -19 0 6 -13 23 -30
39 -16 16 -30 24 -30 19z"/>
<path d="M1458 423 c-9 -18 -2 -38 15 -41 14 -3 18 1 15 19 -3 23 -23 37 -30
22z"/>
</g>
</svg>
