<?xml version="1.0" standalone="no"?>
<!DOCTYPE svg PUBLIC "-//W3C//DTD SVG 20010904//EN"
 "http://www.w3.org/TR/2001/REC-SVG-20010904/DTD/svg10.dtd">
<svg version="1.0" xmlns="http://www.w3.org/2000/svg"
 width="300.000000pt" height="157.000000pt" viewBox="0 0 300.000000 157.000000"
 preserveAspectRatio="xMidYMid meet">
<metadata>
Created by potrace 1.10, written by Peter Selinger 2001-2011
</metadata>
<g transform="translate(0.000000,157.000000) scale(0.100000,-0.100000)"
fill="#fff" stroke="none">
<path d="M119 1411 c-23 -18 -24 -27 -27 -149 -3 -103 0 -136 12 -160 39 -75
98 -41 106 61 4 54 8 62 25 62 17 0 21 -8 25 -55 5 -61 31 -110 57 -110 9 0
27 10 39 21 l23 21 27 -21 c20 -15 41 -21 80 -21 45 0 59 5 87 30 19 16 40 44
47 60 11 26 15 28 28 18 8 -7 21 -28 29 -45 7 -18 24 -40 38 -49 25 -16 27
-16 50 6 14 13 25 29 25 36 0 7 11 26 25 41 24 27 24 28 25 5 0 -37 27 -90 49
-97 11 -3 29 -1 40 4 13 7 22 8 26 1 3 -6 51 -10 109 -10 86 0 105 3 118 18
31 36 30 53 -7 88 -35 33 -35 34 -19 59 15 24 15 27 0 44 -19 21 -21 41 -3 41
16 0 41 27 50 52 3 9 -3 28 -15 43 l-20 26 -137 -2 c-75 -1 -144 -6 -155 -11
-12 -7 -22 -6 -29 1 -31 31 -87 -16 -87 -74 0 -31 -24 -65 -36 -52 -3 3 -8 25
-11 49 -6 43 -35 88 -58 88 -7 0 -23 -9 -37 -19 -23 -19 -24 -19 -48 0 -33 25
-126 26 -168 2 -29 -17 -31 -17 -50 0 -26 23 -36 22 -75 -13 -19 -16 -39 -30
-44 -30 -5 0 -22 14 -38 30 -34 35 -45 37 -76 11z m51 -36 c0 -18 5 -25 20
-25 13 0 22 -9 26 -26 8 -31 38 -29 42 5 3 17 8 22 23 18 13 -4 19 -1 16 6 -6
18 12 47 28 47 9 0 15 -10 15 -22 1 -42 2 -233 1 -261 -1 -22 -5 -28 -18 -25
-19 4 -20 6 -26 135 -2 46 -6 85 -9 88 -3 4 -12 -7 -19 -24 -16 -36 -44 -36
-62 -1 -22 43 -32 21 -35 -82 -2 -57 -8 -107 -13 -113 -21 -21 -29 25 -28 163
1 133 2 142 20 142 14 0 19 -7 19 -25z m378 11 c25 -15 -1 -26 -64 -26 l-64 0
0 -105 0 -105 64 0 c50 0 65 -4 70 -17 4 -9 1 -20 -6 -25 -15 -9 -134 -11
-125 -2 11 11 -12 44 -27 38 -11 -4 -14 16 -15 101 -2 98 0 107 18 112 10 3
21 12 23 21 4 13 17 17 60 16 30 0 60 -4 66 -8z m127 -15 c3 -16 3 -45 -1 -65
-5 -32 -4 -36 15 -36 22 0 24 -4 25 -55 1 -16 6 -30 13 -30 19 0 27 -14 30
-51 2 -29 -1 -34 -21 -34 -19 0 -23 5 -23 31 0 21 -7 37 -23 49 -15 12 -21 24
-18 38 6 23 -6 47 -24 47 -9 0 -13 18 -14 60 -1 33 0 63 3 68 10 17 32 5 38
-22z m149 23 c22 -9 23 -124 1 -124 -16 0 -30 -42 -21 -65 3 -8 4 -15 2 -15
-3 0 -11 -3 -19 -6 -11 -4 -19 5 -27 30 -13 40 -7 56 21 56 17 0 19 7 19 65 0
36 2 65 4 65 2 0 11 -3 20 -6z m91 -4 c-3 -5 -3 -10 2 -10 11 0 4 -273 -8
-285 -20 -20 -29 22 -29 147 0 135 4 158 27 158 8 0 11 -4 8 -10z m255 -20 c0
-25 0 -25 -80 -22 -78 4 -80 4 -80 -19 0 -13 -3 -33 -6 -44 -5 -18 -1 -20 41
-17 62 5 94 -4 91 -25 -2 -15 -13 -18 -64 -18 l-62 0 0 -37 0 -38 64 0 c77 0
96 -6 96 -30 0 -17 -11 -19 -103 -22 l-103 -3 0 100 c1 55 -2 123 -6 150 l-8
50 110 0 110 0 0 -25z m-585 -20 c10 -16 11 -190 2 -190 -5 0 -5 -5 -1 -12 5
-8 2 -9 -10 -5 -10 4 -20 7 -22 7 -7 0 -4 196 3 203 9 10 21 9 28 -3z m-77
-99 c-3 -48 -6 -56 -23 -56 -17 0 -20 8 -23 48 -3 52 10 79 34 70 11 -4 14
-19 12 -62z"/>
<path d="M1326 1389 c-40 -48 -53 -109 -43 -217 5 -51 12 -72 31 -90 31 -31
61 -22 83 24 21 42 42 43 68 1 17 -26 27 -32 55 -32 19 0 46 -4 58 -9 18 -6
29 -3 48 15 13 12 24 28 24 36 0 21 17 15 57 -22 43 -40 68 -44 98 -15 l22 20
25 -20 c36 -27 116 -28 151 0 31 25 39 25 62 0 37 -41 80 -12 92 63 9 60 53
47 53 -17 0 -12 11 -33 25 -46 20 -19 29 -21 47 -13 16 7 30 7 46 0 32 -14 72
24 72 69 0 61 25 50 64 -29 36 -70 84 -59 116 25 20 55 40 61 40 13 0 -25 8
-43 25 -60 22 -23 32 -25 118 -25 86 0 95 2 116 24 30 32 22 70 -19 91 -30 16
-31 16 -14 45 16 27 16 30 0 54 -16 25 -16 27 1 33 53 19 69 67 33 103 -17 17
-33 20 -117 20 -54 0 -104 -4 -112 -9 -9 -6 -24 -5 -38 2 -20 9 -28 7 -49 -14
-14 -15 -27 -43 -32 -69 -9 -51 -29 -64 -38 -23 -20 94 -43 122 -87 107 -12
-5 -26 -6 -32 -5 -5 2 -38 5 -73 7 -72 4 -102 -15 -102 -63 0 -62 -33 -69 -44
-10 -7 36 -39 77 -60 77 -8 0 -19 -7 -26 -15 -16 -19 -39 -19 -64 0 -12 9 -42
15 -78 15 -50 0 -62 -4 -93 -31 l-36 -32 -32 32 c-31 29 -37 31 -109 31 -59 0
-81 -4 -99 -19 -24 -19 -25 -19 -48 0 -17 14 -39 19 -86 19 -62 0 -64 -1 -99
-41z m168 2 c5 0 1 -10 -9 -21 -15 -17 -26 -19 -79 -14 -40 4 -56 2 -48 -4 10
-7 13 -27 10 -70 l-3 -60 64 2 65 1 -3 63 c-2 56 -1 62 18 62 19 0 20 -7 20
-129 0 -123 -1 -129 -20 -124 -15 4 -19 14 -19 43 l0 38 -63 4 -62 3 3 -35 c3
-42 -9 -63 -30 -55 -14 5 -16 26 -16 126 0 116 1 120 25 139 14 11 23 20 19
20 -4 0 -5 3 -3 8 4 6 92 8 131 3z m246 -10 c0 -23 -25 -30 -84 -24 l-46 6 0
-51 c0 -46 2 -51 23 -50 71 4 105 -2 110 -22 3 -10 2 -19 -2 -18 -26 3 -48 -4
-48 -17 0 -15 24 -28 37 -20 4 3 11 -6 14 -19 3 -14 13 -23 23 -22 19 1 30
-31 16 -45 -13 -13 -43 0 -43 17 0 8 -12 19 -26 25 -15 5 -24 12 -21 16 4 3
-5 14 -18 25 -14 11 -25 26 -25 34 0 18 -14 18 -30 -1 -8 -10 -11 -33 -8 -65
4 -38 1 -50 -10 -55 -22 -8 -34 15 -27 55 2 19 5 81 5 137 l0 102 68 4 c37 2
73 4 80 5 6 1 12 -6 12 -17z m248 5 c4 -4 7 -13 7 -19 0 -7 8 -11 17 -9 20 3
32 -47 12 -55 -17 -6 -44 14 -44 32 0 17 -23 25 -71 25 l-39 0 0 -105 0 -105
39 0 c22 0 46 -3 55 -6 10 -4 17 2 21 18 5 17 13 24 28 23 32 -2 34 -33 3 -45
-14 -5 -26 -16 -26 -25 0 -12 -13 -15 -60 -15 -55 0 -60 2 -66 25 -4 18 -11
24 -23 20 -14 -4 -17 5 -20 66 -3 89 6 149 24 149 8 0 16 8 19 18 5 15 16 18
61 17 30 -1 59 -5 63 -9z m129 -53 l-2 -68 68 0 c68 0 68 0 61 25 -4 14 -8 42
-8 63 -1 34 1 37 27 37 l28 0 -2 -150 c-2 -125 -5 -150 -17 -145 -7 3 -17 5
-21 5 -4 0 -7 27 -7 61 l1 61 -63 1 -62 2 0 -55 c0 -61 -11 -86 -33 -77 -11 4
-14 32 -14 144 0 76 2 144 5 151 2 6 12 12 22 12 16 0 18 -8 17 -67z m244 60
c0 -5 1 -70 2 -146 2 -142 -3 -171 -24 -150 -9 9 -15 184 -9 293 0 11 30 14
31 3z m87 -61 c2 -53 6 -62 21 -62 21 0 31 -19 31 -55 0 -13 5 -27 11 -31 16
-10 30 17 26 49 -3 22 1 29 19 33 19 5 21 11 17 44 -7 54 3 89 24 86 15 -2 18
-14 18 -67 0 -45 -4 -63 -12 -62 -18 4 -34 -33 -27 -62 5 -21 3 -25 -15 -25
-17 0 -21 -6 -21 -32 0 -43 -12 -60 -34 -52 -14 5 -17 15 -14 42 4 30 1 36
-23 44 -18 6 -26 15 -22 24 8 22 -6 64 -21 64 -9 0 -15 15 -17 43 -6 63 0 85
19 83 13 -2 18 -16 20 -64z m416 52 c12 -32 6 -39 -31 -36 -21 1 -62 4 -90 6
l-53 3 0 -46 0 -46 57 3 c64 3 87 -6 78 -30 -5 -12 -21 -16 -68 -16 l-62 1 -3
-39 -3 -39 85 0 c89 0 102 -4 93 -30 -5 -12 -25 -15 -107 -15 l-100 0 0 145 0
144 88 4 c48 1 92 4 98 5 7 1 15 -5 18 -14z m-1081 -71 c7 -40 3 -53 -17 -53
-17 0 -38 48 -31 71 11 34 42 23 48 -18z m-333 -23 c0 -13 -7 -20 -20 -20 -13
0 -20 7 -20 20 0 13 7 20 20 20 13 0 20 -7 20 -20z m514 1 c10 -11 28 -22 42
-25 37 -10 29 -32 -19 -55 -70 -34 -77 -30 -77 39 0 52 3 60 18 60 11 0 27 -9
36 -19z"/>
<path d="M270 943 c-8 -3 -25 -15 -37 -25 -22 -20 -22 -20 -49 1 -34 27 -58
27 -85 0 -19 -19 -21 -29 -16 -79 18 -164 103 -266 177 -211 29 21 29 21 62 2
43 -24 88 -13 119 30 27 39 69 155 69 194 0 65 -57 100 -111 68 -29 -17 -31
-17 -69 5 -21 12 -40 22 -42 21 -2 0 -10 -3 -18 -6z m87 -96 c18 -35 26 -28
32 25 2 12 32 38 46 38 27 0 47 -32 40 -64 -3 -17 -9 -42 -11 -56 -3 -13 -10
-30 -15 -36 -5 -7 -12 -21 -14 -32 -10 -56 -66 -93 -100 -68 -9 6 -22 29 -29
50 l-13 39 -12 -35 c-27 -80 -89 -88 -121 -15 -10 23 -16 45 -14 49 3 4 0 8
-7 8 -7 0 -10 3 -6 6 3 3 -1 24 -9 46 -7 22 -12 44 -9 48 3 5 1 11 -5 15 -16
10 -12 23 11 35 27 15 67 -10 81 -51 8 -24 13 -27 24 -18 8 6 11 15 8 20 -7
12 25 57 44 62 21 4 59 -28 79 -66z"/>
<path d="M130 881 c0 -6 5 -13 10 -16 8 -5 8 -11 0 -20 -7 -9 -6 -16 5 -25 8
-7 13 -16 10 -20 -3 -5 -1 -11 4 -14 5 -4 12 -25 16 -48 4 -23 14 -48 21 -56
18 -17 55 -7 47 13 -3 8 2 18 11 21 11 4 15 13 11 25 -5 13 -2 19 7 17 7 -2
13 5 13 14 0 26 13 32 30 14 9 -9 12 -16 6 -16 -6 0 -11 -7 -11 -15 0 -8 5
-15 11 -15 7 0 9 -9 6 -21 -3 -12 0 -22 9 -26 8 -3 11 -9 8 -14 -6 -10 17 -12
40 -3 9 3 14 10 11 15 -6 8 10 41 34 71 8 10 11 29 8 45 -3 17 0 31 10 38 18
14 6 47 -16 43 -10 -3 -15 -12 -14 -26 2 -16 -1 -21 -9 -16 -8 5 -9 0 -6 -14
4 -12 2 -22 -4 -22 -5 0 -6 -9 -3 -20 4 -11 2 -20 -4 -20 -6 0 -11 -11 -11
-25 0 -14 -4 -25 -10 -25 -10 0 -14 13 -11 42 1 9 -3 19 -9 23 -16 10 -12 28
5 21 30 -11 14 4 -17 18 -27 11 -30 15 -16 21 16 6 15 9 -7 27 -32 25 -59 17
-50 -13 5 -16 4 -19 -6 -14 -9 6 -11 2 -7 -13 4 -15 2 -22 -8 -22 -21 0 -17
-20 4 -20 16 -1 16 -2 -1 -15 -13 -9 -17 -20 -12 -34 7 -24 0 -27 -20 -7 -14
13 -15 40 -2 52 4 4 -6 18 -21 31 -18 17 -23 27 -14 30 8 3 5 11 -12 24 -27
21 -36 24 -36 10z"/>
<path d="M1071 924 c-20 -14 -22 -22 -17 -58 4 -22 17 -63 30 -91 13 -27 33
-71 44 -98 26 -58 58 -75 103 -51 16 8 34 25 38 37 5 12 26 66 46 120 l38 97
-23 25 c-27 29 -58 32 -100 10 -26 -14 -33 -14 -52 -1 -39 24 -81 28 -107 10z
m81 -24 c21 0 33 -37 18 -55 -15 -18 -31 -10 -23 11 3 9 0 20 -8 25 -19 12
-32 11 -24 -1 4 -6 2 -17 -4 -24 -9 -11 -6 -15 11 -20 19 -5 20 -8 9 -15 -12
-8 -12 -12 -2 -25 13 -16 41 -11 41 8 0 6 22 32 49 58 46 45 50 47 80 37 37
-13 38 -22 6 -64 -13 -18 -30 -51 -37 -74 -7 -22 -16 -41 -19 -41 -4 0 -5 -8
-2 -19 5 -19 -31 -61 -51 -61 -28 1 -40 20 -40 68 0 35 -3 49 -12 45 -20 -7
-45 51 -48 109 -1 23 -5 27 -21 22 -20 -5 -20 -5 0 11 11 9 29 14 40 11 11 -3
28 -6 37 -6z"/>
<path d="M1260 871 c0 -12 -6 -21 -15 -21 -9 0 -15 -6 -13 -14 2 -8 0 -14 -3
-13 -3 1 -19 -13 -34 -31 -19 -22 -24 -36 -17 -41 7 -4 8 -19 3 -43 -7 -30 -6
-37 9 -41 9 -2 22 4 29 14 7 12 7 19 1 19 -16 0 -12 30 6 37 8 3 13 12 10 19
-3 9 1 14 12 14 16 1 15 2 -1 11 -14 8 -16 14 -6 25 6 8 21 14 33 14 16 0 18
2 7 9 -16 10 -6 31 15 31 8 0 14 5 14 10 0 6 -4 10 -9 10 -5 0 -16 3 -25 6
-12 4 -16 0 -16 -15z"/>
<path d="M1489 925 c-41 -22 -49 -54 -42 -162 6 -88 9 -100 33 -125 20 -19 41
-28 82 -33 69 -9 115 5 153 45 27 29 29 37 32 123 4 108 -7 137 -57 154 -48
16 -169 15 -201 -2z m181 -23 l45 -7 0 -55 c1 -30 -4 -58 -10 -62 -6 -5 -6
-11 3 -20 14 -14 16 -68 3 -68 -5 0 -13 -9 -16 -20 -4 -11 -11 -18 -16 -15 -5
4 -9 2 -9 -3 0 -5 -35 -9 -77 -10 -102 -1 -115 10 -112 93 1 33 -2 71 -5 85
-8 28 9 84 22 76 4 -2 14 -1 22 5 17 10 85 11 150 1z"/>
<path d="M1530 870 c0 -5 -6 -7 -14 -4 -18 7 -31 -13 -18 -29 17 -20 18 -71 3
-83 -12 -9 -12 -12 0 -16 8 -3 25 3 37 13 19 15 21 22 13 38 -23 43 -14 59 34
63 25 2 45 0 45 -4 0 -4 7 -5 15 -2 9 4 15 0 15 -10 0 -26 -4 -30 -35 -33 -41
-4 -55 -10 -55 -23 0 -6 4 -8 10 -5 5 3 7 0 4 -8 -3 -10 4 -14 26 -15 53 -3
59 -5 64 -18 8 -22 -12 -27 -103 -26 -47 0 -80 -2 -73 -5 6 -3 12 -11 12 -18
0 -15 108 -26 126 -13 7 5 16 8 20 7 23 -4 34 3 34 21 0 11 5 20 11 20 6 0 4
6 -4 14 -14 14 -15 70 -2 124 5 21 3 22 -80 22 -48 0 -85 -4 -85 -10z"/>
<path d="M2332 919 c-53 -34 -65 -69 -57 -161 9 -98 31 -130 104 -148 88 -21
176 24 169 86 -2 24 -13 34 -56 54 -58 28 -57 35 4 59 61 24 69 88 14 116 -44
23 -138 19 -178 -6z m176 -20 c12 -5 22 -17 22 -28 0 -25 -31 -36 -112 -40
-20 -1 -26 -5 -22 -16 4 -8 10 -12 15 -9 5 3 9 0 9 -5 0 -6 -7 -11 -16 -11 -8
0 -12 -4 -9 -10 3 -5 2 -10 -4 -10 -6 0 -8 -6 -5 -14 3 -8 29 -20 57 -26 82
-19 85 -20 83 -37 -5 -33 -43 -51 -106 -50 -33 0 -60 5 -60 9 0 5 -4 7 -8 4
-15 -9 -35 12 -37 41 -1 15 -6 45 -10 66 -12 63 0 100 43 125 39 22 115 28
160 11z"/>
<path d="M2380 881 c0 -5 -11 -12 -24 -15 -18 -4 -23 -11 -19 -26 3 -11 0 -20
-6 -20 -6 0 -11 -4 -11 -10 0 -5 8 -10 17 -10 15 0 14 -2 -3 -14 -18 -14 -19
-15 -1 -48 10 -19 17 -41 15 -49 -2 -8 4 -13 14 -11 9 1 19 -1 22 -6 7 -12
109 1 114 16 2 8 -10 12 -42 12 -33 0 -52 6 -66 20 -11 11 -25 20 -30 20 -15
0 -8 33 9 46 12 9 11 12 -3 17 -16 6 -16 9 -2 29 9 12 26 23 38 23 13 1 45 2
72 3 46 2 48 3 30 17 -21 16 -124 21 -124 6z"/>
<path d="M2675 918 c-23 -20 -27 -35 -37 -118 -10 -84 -9 -100 6 -131 23 -49
57 -64 97 -43 28 14 34 14 74 -2 41 -15 47 -15 69 -1 36 24 40 50 15 106 l-21
51 21 51 c21 47 21 52 6 75 -21 33 -57 40 -94 18 -29 -17 -32 -17 -60 -1 -38
22 -45 22 -76 -5z m63 -20 c5 -7 11 -22 13 -32 6 -31 26 -30 45 3 19 32 42 42
74 34 27 -7 25 -21 -9 -75 -29 -46 -29 -47 -12 -70 10 -13 19 -25 19 -28 0 -3
5 -18 11 -33 15 -39 14 -45 -9 -52 -25 -8 -68 15 -83 44 -17 34 -30 31 -43 -8
-8 -24 -18 -35 -33 -36 -42 -3 -50 28 -41 177 3 55 8 68 25 77 27 13 31 13 43
-1z"/>
<path d="M2705 875 c-14 -11 -16 -18 -8 -21 9 -4 10 -11 4 -22 -10 -19 -14
-55 -12 -119 1 -34 5 -43 19 -43 12 0 18 9 19 35 2 22 -1 35 -9 35 -9 0 -9 3
-1 11 17 17 83 -8 83 -32 0 -18 46 -57 56 -47 6 7 -17 60 -32 73 -14 12 -25
55 -15 55 4 0 19 18 34 40 23 36 24 40 8 40 -10 0 -31 -16 -45 -35 -15 -19
-36 -39 -47 -45 -26 -14 -42 -4 -29 19 5 10 6 30 2 45 -7 25 -8 26 -27 11z"/>
<path d="M717 910 c-24 -19 -60 -99 -88 -198 -11 -39 -11 -44 11 -67 28 -29
64 -32 114 -8 33 15 38 15 75 -1 71 -32 121 9 101 82 -17 66 -60 155 -88 185
-32 34 -87 37 -125 7z m114 -26 c6 -8 8 -14 5 -14 -4 0 -1 -12 7 -27 8 -16 19
-39 24 -53 6 -14 18 -42 27 -64 9 -21 14 -47 11 -57 -11 -35 -74 -18 -87 23
-4 10 -8 10 -21 -1 -9 -7 -23 -11 -32 -7 -8 3 -19 -3 -25 -14 -7 -13 -19 -18
-47 -16 -20 1 -38 7 -41 14 -5 15 28 104 42 114 6 4 8 8 3 8 -4 0 -1 16 7 35
9 20 14 39 13 43 -3 12 63 40 83 35 11 -3 25 -11 31 -19z"/>
<path d="M760 876 c-34 -14 -34 -14 -21 -29 9 -11 8 -17 -4 -27 -8 -7 -12 -16
-9 -21 3 -5 -4 -23 -16 -39 -12 -16 -18 -35 -15 -41 4 -6 -1 -16 -11 -24 -18
-13 -18 -14 -1 -21 12 -4 23 0 32 12 8 12 26 19 46 19 18 0 34 6 37 14 3 8 0
11 -7 7 -6 -4 -11 -1 -11 8 0 10 -9 16 -21 16 -18 0 -19 3 -9 15 6 8 10 20 7
27 -2 7 2 21 11 31 14 16 16 14 34 -24 10 -23 18 -47 18 -54 0 -7 7 -18 15
-25 9 -7 14 -19 11 -26 -3 -7 2 -15 10 -18 23 -9 24 -8 24 19 0 14 -4 25 -8
25 -4 0 -16 25 -26 54 -11 30 -26 58 -34 61 -9 3 -13 14 -10 28 5 26 -5 29
-42 13z"/>
<path d="M1937 901 c-28 -34 -74 -143 -83 -200 -11 -71 51 -102 130 -64 32 15
37 15 60 0 38 -26 81 -22 105 9 29 37 27 53 -20 158 -53 118 -61 126 -120 126
-40 0 -51 -4 -72 -29z m124 -28 c6 -16 11 -30 11 -33 1 -3 14 -29 30 -59 17
-30 30 -71 31 -90 2 -34 0 -36 -31 -37 -26 -1 -36 4 -44 22 -6 13 -14 21 -18
19 -3 -2 -20 -6 -36 -9 -16 -3 -33 -12 -39 -19 -5 -8 -26 -14 -45 -13 -30 1
-35 4 -36 26 0 14 2 30 5 35 3 6 7 19 8 29 2 11 8 25 15 33 6 7 12 21 13 31 6
57 39 92 87 92 33 0 40 -4 49 -27z"/>
<path d="M1983 877 c-14 -7 -23 -24 -28 -51 -3 -23 -5 -43 -5 -45 1 -2 -4 -7
-10 -11 -13 -8 -34 -89 -25 -98 3 -3 15 4 28 15 12 11 28 18 35 16 20 -8 64 6
56 18 -3 6 -8 8 -11 5 -6 -6 -43 31 -43 44 0 6 4 10 8 10 4 0 8 10 8 23 -1 30
18 38 22 10 2 -13 8 -23 13 -23 5 0 9 -11 9 -24 0 -13 7 -30 16 -37 9 -7 20
-23 25 -36 5 -13 12 -23 17 -23 16 0 10 42 -8 60 -12 12 -17 26 -13 36 4 10
-1 22 -11 30 -10 7 -15 17 -12 23 3 5 -5 18 -19 29 -30 24 -31 29 -7 35 14 4
13 5 -3 5 -11 0 -30 -5 -42 -11z"/>
<path d="M256 451 c-27 -28 -28 -33 -28 -131 0 -123 14 -153 77 -158 21 -2 42
1 48 7 14 14 114 14 122 1 12 -19 71 -11 93 13 19 20 21 34 21 122 -1 103 -13
147 -44 159 -29 11 -85 6 -116 -9 -28 -15 -32 -14 -58 5 -42 29 -82 26 -115
-9z m119 -41 c25 -40 55 -53 55 -25 0 8 -4 15 -10 15 -5 0 -10 5 -10 12 0 6 3
8 6 5 4 -3 17 2 31 13 25 19 77 20 97 0 5 -5 11 -30 11 -55 2 -34 -2 -45 -13
-45 -9 0 -13 7 -9 20 3 11 1 23 -5 26 -5 3 -7 13 -3 22 3 8 0 19 -7 24 -18 11
-51 10 -43 -1 3 -5 -2 -17 -11 -25 -8 -9 -13 -16 -9 -16 4 0 -1 -7 -9 -16 -10
-10 -14 -24 -10 -40 4 -15 2 -24 -6 -24 -6 0 -8 -5 -4 -12 5 -9 2 -9 -9 1 -9
7 -29 40 -43 72 -25 55 -51 78 -74 64 -5 -3 -10 -13 -10 -21 0 -14 -21 -19
-33 -7 -13 13 36 53 65 53 22 0 33 -9 53 -40z m-15 -128 c-12 -5 35 -52 51
-52 22 1 52 27 39 35 -7 4 -4 13 10 25 14 12 20 28 18 46 -2 16 2 29 11 32 10
3 12 -1 8 -17 -3 -11 -1 -21 4 -21 13 0 11 -37 -1 -45 -8 -5 -8 -11 -1 -19 6
-7 7 -22 4 -35 -5 -19 -2 -22 13 -19 14 2 19 12 20 39 1 36 9 59 23 59 13 0 2
-103 -11 -112 -7 -4 -24 -7 -38 -6 -20 2 -25 8 -25 30 l1 27 -21 -19 c-29 -28
-71 -25 -114 7 -20 14 -37 27 -39 29 -2 1 2 11 10 23 10 16 10 23 0 33 -6 6
-12 26 -12 43 0 28 2 26 29 -25 16 -30 25 -56 21 -58z m-65 88 c3 -5 1 -10 -5
-10 -8 0 -9 -10 -5 -29 3 -16 2 -32 -2 -34 -5 -3 -7 -22 -5 -42 5 -39 28 -57
43 -34 8 12 10 12 18 -1 14 -20 4 -30 -28 -30 -48 0 -59 24 -54 113 4 54 10
77 19 77 7 0 16 -4 19 -10z"/>
<path d="M815 472 c-45 -9 -77 -58 -116 -179 -20 -64 -21 -75 -9 -98 19 -35
53 -41 116 -21 49 15 56 16 76 2 57 -40 126 5 113 74 -7 37 -63 163 -86 193
-16 20 -65 35 -94 29z m68 -41 c9 -7 14 -18 11 -23 -3 -5 1 -17 9 -26 19 -21
49 -92 39 -92 -4 0 -2 -4 5 -8 7 -4 15 -26 19 -49 5 -36 4 -42 -16 -48 -17 -5
-30 0 -54 24 -25 24 -35 28 -44 19 -7 -7 -12 -8 -12 -4 0 5 -11 1 -25 -8 -14
-9 -25 -14 -25 -11 0 4 -7 -1 -16 -9 -11 -12 -20 -13 -33 -6 -10 5 -21 6 -25
3 -10 -10 0 49 15 87 7 19 12 38 11 43 -1 4 3 7 9 7 5 0 8 4 5 8 -3 5 1 20 9
35 8 15 11 27 8 27 -4 0 3 11 16 24 24 26 68 29 94 7z"/>
<path d="M828 419 c-10 -5 -18 -6 -18 -2 0 4 -4 1 -10 -7 -5 -9 -5 -19 2 -27
7 -9 6 -14 -6 -19 -11 -4 -15 -13 -11 -25 4 -11 2 -19 -5 -19 -6 0 -8 -5 -5
-10 3 -6 -1 -13 -9 -16 -9 -3 -15 -16 -14 -27 0 -12 -3 -30 -7 -39 -9 -23 13
-24 29 -2 7 9 28 16 49 17 20 0 37 3 37 6 -1 12 -28 41 -37 41 -6 0 -7 15 -4
37 4 25 12 37 24 39 12 1 17 -2 14 -11 -3 -7 -1 -17 4 -22 5 -5 11 -23 12 -40
1 -17 6 -31 11 -30 5 1 15 -9 22 -22 13 -24 32 -41 48 -41 6 0 5 5 -2 12 -7 7
-12 18 -12 26 0 7 -7 20 -15 28 -8 9 -15 26 -15 40 0 13 -4 24 -10 24 -5 0
-10 11 -10 24 0 13 -7 26 -15 30 -8 3 -15 15 -15 26 0 22 -7 24 -32 9z"/>
<path d="M1175 461 c-66 -30 -83 -84 -64 -191 18 -93 52 -120 152 -120 62 0
71 3 98 29 16 16 29 38 29 48 0 24 -36 57 -74 70 -33 10 -33 11 42 69 40 32
42 65 6 93 -35 28 -132 29 -189 2z m155 -20 c15 -4 26 -15 28 -28 3 -18 -4
-24 -40 -34 -24 -7 -59 -12 -78 -12 l-35 1 33 -16 c30 -15 44 -42 21 -42 -5 0
-7 5 -4 10 4 6 -8 10 -29 10 -32 0 -35 2 -34 29 1 24 6 30 30 35 17 3 41 3 53
0 14 -3 33 0 46 9 21 15 20 16 -25 22 -36 6 -57 3 -92 -13 -27 -11 -42 -22
-35 -26 17 -11 13 -29 -5 -22 -13 5 -15 2 -9 -11 4 -10 7 -30 6 -45 -1 -16 4
-28 10 -28 7 0 10 -12 7 -30 -4 -27 -2 -30 31 -37 60 -11 100 -8 118 10 16 16
14 17 -34 17 -43 0 -57 5 -78 26 -30 30 -28 48 6 52 17 2 20 0 10 -6 -7 -6
-11 -15 -7 -21 9 -13 83 -34 96 -26 6 3 10 1 10 -4 0 -6 7 -11 15 -11 25 0 13
-51 -15 -60 -8 -3 -43 -5 -76 -5 -71 0 -98 17 -108 68 -6 28 -9 104 -7 145 2
34 124 62 191 43z"/>
<path d="M2122 456 c-30 -26 -31 -28 -31 -119 -1 -105 15 -149 61 -168 21 -9
35 -9 57 1 24 9 34 9 59 -4 100 -52 156 30 137 199 -9 89 -20 100 -97 102 -35
1 -84 5 -109 8 -40 6 -49 3 -77 -19z m116 -26 c2 -5 8 -8 13 -4 5 3 9 1 9 -5
0 -5 -6 -12 -12 -14 -9 -4 -7 -6 3 -6 9 -1 28 10 44 25 31 29 52 28 73 -3 14
-22 13 -23 -11 -23 -20 0 -25 4 -20 16 5 14 3 15 -17 4 -18 -10 -20 -14 -9
-21 10 -6 6 -9 -13 -9 -16 0 -28 -4 -28 -10 0 -5 5 -10 10 -10 6 0 13 0 18 0
10 0 22 -51 14 -64 -3 -6 -7 -15 -8 -21 0 -5 -2 -16 -2 -23 -3 -24 -22 -1 -22
27 0 15 -5 32 -12 39 -7 7 -9 12 -6 12 3 0 -9 16 -28 37 -18 20 -31 40 -28 45
3 4 -2 8 -10 8 -8 0 -18 -5 -21 -10 -4 -6 -10 -8 -15 -5 -4 2 -10 -7 -13 -20
-2 -14 0 -28 4 -31 5 -3 6 -17 3 -32 -15 -67 -16 -82 -5 -82 6 0 11 -7 11 -15
0 -8 -4 -15 -9 -15 -21 0 -28 31 -27 112 2 74 5 90 21 103 22 17 87 13 93 -5z
m137 -130 c-1 -104 -4 -110 -65 -110 -27 0 -50 5 -50 10 0 6 15 10 33 10 35 1
81 29 60 37 -15 5 -17 39 -4 47 12 8 5 54 -10 72 -11 14 -10 15 11 12 24 -3
25 -6 25 -78z m-140 1 c-3 -6 8 -24 25 -41 17 -18 29 -35 26 -38 -10 -9 -56
20 -56 36 0 23 -8 10 -14 -23 -3 -16 -12 -35 -19 -43 -13 -12 -19 -12 -43 2
l-29 15 27 1 c30 0 35 10 42 95 3 28 5 52 5 54 1 2 10 -8 22 -23 11 -14 18
-30 14 -35z"/>
<path d="M2537 459 c-31 -24 -38 -51 -21 -83 9 -19 10 -34 3 -55 -23 -65 37
-169 98 -172 78 -4 106 -1 131 18 24 18 27 28 30 89 2 41 -2 78 -9 91 -10 18
-10 26 -1 35 19 19 14 43 -13 68 -23 21 -37 25 -110 26 -70 2 -89 -1 -108 -17z
m183 -20 c3 -1 8 -1 12 0 4 0 12 -8 18 -19 9 -16 7 -22 -6 -27 -10 -4 -20 0
-26 10 -7 13 -23 17 -63 17 -93 0 -117 -23 -37 -35 26 -4 50 -12 54 -18 6 -9
8 -9 8 1 0 6 10 12 23 11 21 0 21 -1 2 -9 -11 -5 -14 -9 -7 -9 8 -1 12 -7 9
-13 -2 -7 -15 -12 -30 -10 -14 2 -43 -1 -64 -7 -32 -9 -38 -15 -38 -36 1 -14
5 -28 8 -32 11 -10 8 -25 -3 -18 -5 3 -10 2 -10 -4 0 -21 47 -34 113 -33 37 1
67 -2 67 -7 0 -15 -87 -24 -133 -15 -50 11 -68 40 -65 104 3 43 5 45 38 51
l35 6 -30 11 c-16 7 -37 16 -45 21 -19 10 -22 49 -4 59 10 6 157 7 174 1z m34
-116 c3 -8 -1 -21 -9 -29 -19 -19 -19 -22 0 -40 8 -9 15 -20 15 -25 0 -14 -17
-11 -23 5 -3 8 -28 15 -63 19 -82 8 -91 31 -15 37 66 6 79 13 63 33 -7 8 -9
16 -6 20 9 9 32 -3 38 -20z"/>
<path d="M1506 446 c-24 -23 -26 -31 -26 -123 0 -77 4 -104 17 -123 37 -55 68
-62 114 -29 l29 20 30 -21 c37 -26 57 -23 83 12 17 23 21 46 24 131 3 92 1
106 -17 125 -32 34 -67 38 -100 13 -34 -25 -39 -25 -59 -7 -32 29 -68 30 -95
2z m246 -45 c-1 -6 -3 -27 -5 -46 -1 -25 -7 -35 -19 -35 -14 0 -16 4 -8 24 6
17 5 26 -3 30 -8 3 -6 10 7 20 11 9 17 16 13 16 -16 0 -23 2 -36 13 -11 10
-13 9 -9 -3 3 -8 -1 -23 -10 -32 -11 -13 -11 -18 -3 -18 7 0 11 -5 9 -12 -2
-6 -27 -13 -55 -15 -48 -4 -51 -3 -57 23 -5 17 -3 30 4 34 8 5 4 9 -9 13 -12
3 -19 1 -16 -3 3 -5 -3 -13 -12 -19 -15 -9 -16 -12 -4 -20 12 -8 12 -13 3 -24
-10 -12 -9 -16 5 -22 16 -6 16 -8 -5 -19 -21 -11 -22 -14 -7 -26 14 -12 18
-12 25 0 6 9 26 14 60 13 61 -1 80 -14 62 -43 -14 -23 -15 -30 -4 -29 18 3 52
-15 52 -27 0 -40 -63 10 -75 59 -4 15 -14 27 -22 27 -9 0 -13 -6 -9 -15 6 -18
-7 -19 -35 -4 -27 14 -66 -16 -48 -38 16 -18 40 -17 33 2 -7 17 21 21 31 4 8
-11 -22 -49 -38 -49 -6 0 -21 10 -34 22 -21 19 -23 30 -23 110 0 95 10 128 38
128 35 0 56 -26 61 -72 1 -5 10 -8 22 -8 16 0 19 4 14 22 -6 17 -4 20 9 15 11
-4 16 -1 16 11 0 34 21 43 54 23 17 -10 30 -23 28 -30z m-7 -141 c0 -45 -2
-49 -20 -44 -30 9 -32 14 -12 26 14 7 17 17 12 39 -5 21 -3 29 7 29 10 0 14
-14 13 -50z"/>
<path d="M1897 452 c-28 -31 -39 -75 -39 -156 0 -97 19 -129 75 -134 32 -3 39
1 57 30 18 28 20 47 17 135 -2 83 -6 105 -21 122 -23 26 -67 27 -89 3z m78
-126 c2 -66 -2 -111 -9 -120 -14 -19 -62 -26 -58 -8 1 6 -2 12 -7 12 -8 0 -10
20 -9 90 0 19 0 48 -1 64 0 16 4 37 10 48 12 23 50 39 63 27 5 -4 10 -55 11
-113z"/>
<path d="M1922 413 c-10 -4 -10 -8 -1 -19 6 -8 7 -14 2 -14 -12 0 -14 -38 -2
-46 6 -4 6 -11 -1 -19 -8 -10 -8 -24 -1 -51 6 -20 8 -41 4 -47 -3 -5 3 -7 13
-5 19 3 25 42 10 66 -4 7 -1 23 8 37 9 14 12 25 6 25 -14 0 -12 67 3 73 6 3 3
5 -8 5 -11 0 -26 -2 -33 -5z"/>
</g>
</svg>
